HIERARCHY
ROOT Hips
{
  OFFSET 0 0 0
  CHANNELS 6 Xposition Yposition Zposition Zrotation Yrotation Xrotation
  JOINT LeftThigh
  {
    OFFSET 8.409438 0 -5.917753
    CHANNELS 3 Zrotation Yrotation Xrotation
    JOINT LeftLeg
    {
      OFFSET 0 0 -42.358652
      CHANNELS 3 Zrotation Yrotation Xrotation
      JOINT LeftFoot
      {
        OFFSET 0 0 -39.357303
        CHANNELS 3 Zrotation Yrotation Xrotation
      }
    }
  }
  JOINT RightThigh
  {
    OFFSET -8.409438 0 -5.917753
    CHANNELS 3 Zrotation Yrotation Xrotation
    JOINT RightLeg
    {
      OFFSET 0 0 -42.358652
      CHANNELS 3 Zrotation Yrotation Xrotation
      JOINT RightFoot
      {
        OFFSET 0 0 -39.357303
        CHANNELS 3 Zrotation Yrotation Xrotation
      }
    }
  }
  JOINT SpineLow
  {
    OFFSET 0 0 4.719101
    CHANNELS 3 Zrotation Yrotation Xrotation
    JOINT SpineMid
    {
      OFFSET 0 0 12.899191
      CHANNELS 3 Zrotation Yrotation Xrotation
      JOINT Chest
      {
        OFFSET 0 0 12.899191
        CHANNELS 3 Zrotation Yrotation Xrotation
        JOINT LeftShoulder
        {
          OFFSET 7.550562 1.41573 9.438202
          CHANNELS 3 Zrotation Yrotation Xrotation
          JOINT LeftArm
          {
            OFFSET 9.155056 0 4.247191
            CHANNELS 3 Zrotation Yrotation Xrotation
            JOINT LeftForearm
            {
              OFFSET 0 0 25.771955
              CHANNELS 3 Zrotation Yrotation Xrotation
              JOINT LeftHand
              {
                OFFSET 0 0 25.197169
                CHANNELS 3 Zrotation Yrotation Xrotation
              }
            }
          }
        }
        JOINT RightShoulder
        {
          OFFSET -7.550562 1.41573 9.438202
          CHANNELS 3 Zrotation Yrotation Xrotation
          JOINT RightArm
          {
            OFFSET -9.155056 0 4.247191
            CHANNELS 3 Zrotation Yrotation Xrotation
            JOINT RightForearm
            {
              OFFSET 0 0 -25.771955
              CHANNELS 3 Zrotation Yrotation Xrotation
              JOINT RightHand
              {
                OFFSET 0 0 -25.197169
                CHANNELS 3 Zrotation Yrotation Xrotation
              }
            }
          }
        }
        JOINT Neck
        {
          OFFSET 0 0 15.101124
          CHANNELS 3 Zrotation Yrotation Xrotation
          JOINT Head
          {
            OFFSET 0 0 11.325843
            CHANNELS 3 Zrotation Yrotation Xrotation
            End Site
            {
              OFFSET 0 0 14.157303
            }
          }
        }
      }
    }
  }
}
MOTION
Frames: 7
Frame Time: 0.0
0.0  89.887642  0.0  18.03432  -59.432465  -122.231775  37.980173  -40.311182  -21.776091  19.173507  27.404526  69.891354  -1.355579  0.649429  -0.043307  -12.199988  18.169348  -31.4322  16.041295  13.202952  65.117788  16.061257  9.28162  -4.605595  0.377731  1.781746  1.614519  1.152954  4.842323  4.44822  1.152954  4.842324  4.44822  -3.069422  25.010259  16.080697  -88.713254  41.416238  -76.335191  -35.782599  10.608048  81.064457  64.937783  -2.745469  16.159373  9.885107  6.483339  17.397123  94.614364  39.596486  21.981902  1.305346  -3.494654  -94.426593  83.648238  -2.401556  10.096451  13.89147  -1.240623  13.538482  10.451783  -0.62331  10.18793  
0.0  89.887642  0.0  18.055746  -59.213187  -122.116435  37.235661  -40.660954  -21.256923  19.95283  27.443775  69.480852  -1.481207  0.755002  -0.126278  -12.620569  18.170599  -31.681895  16.226973  12.762765  65.161201  15.815585  9.283103  -4.582218  0.241798  1.779758  1.622042  0.781391  4.845966  4.458835  0.781391  4.845966  4.458835  -2.41115  25.121499  15.994805  -88.984685  41.444384  -77.056799  -35.744085  10.881524  80.929419  64.900863  -2.486368  16.605623  10.426734  6.682246  16.919072  95.316847  39.422405  22.470645  1.014225  -3.478135  -94.15931  82.852565  -2.319978  10.483777  14.246578  -0.873791  13.377135  10.709963  -0.343742  10.059536  
0.0  89.887642  0.0  17.923328  -58.934856  -121.867025  36.382174  -40.933485  -20.725999  20.72285  27.411173  69.034308  -1.630007  0.815545  -0.229374  -12.454274  18.28401  -31.354936  15.671776  12.862125  64.867436  15.824985  9.256815  -4.555697  0.201871  1.776534  1.578774  0.668741  4.840353  4.337393  0.668741  4.840353  4.337393  -2.153783  25.116621  16.354006  -89.166439  41.50568  -77.595771  -35.756014  11.285542  80.712123  64.827378  -2.358665  16.950031  10.17739  6.645075  16.87722  96.083958  39.208864  22.870378  0.70676  -3.583071  -93.809088  82.1588  -2.008024  10.769155  14.211267  -0.669781  13.418113  10.679168  -0.190366  10.085541  
0.0  89.887642  0.0  17.792764  -58.701722  -121.688669  35.986918  -41.109331  -20.377478  21.184744  27.212817  68.660321  -1.78962  0.856716  -0.300688  -13.029724  18.262705  -31.515781  15.757737  12.842189  64.746737  15.896198  9.205762  -4.527183  0.222171  1.775203  1.539481  0.721327  4.835858  4.231277  0.721327  4.835857  4.231277  -2.228788  25.04914  16.679145  -89.180059  41.672325  -78.062153  -35.815472  11.782973  80.511046  64.774827  -2.289072  17.181106  9.905458  6.610246  16.974212  96.361902  39.079362  23.016492  0.608367  -3.798207  -93.478604  81.512895  -1.549367  11.072096  13.946939  -0.602303  13.549913  10.479599  -0.142497  10.182403  
0.0  89.887642  0.0  17.698745  -58.528672  -121.500079  36.278599  -41.131869  -20.37474  21.137003  27.106609  68.166377  -2.023879  0.840802  -0.372698  -14.01896  18.133896  -31.57256  16.056213  12.807174  64.32344  16.062675  9.264497  -4.518399  0.230749  1.762043  1.500816  0.741133  4.799836  4.125817  0.741133  4.799836  4.125817  -2.178889  25.05524  16.85982  -89.285034  41.985557  -78.245065  -35.966969  11.983057  80.169784  64.778626  -2.243917  17.275099  9.30358  6.473076  17.121893  97.111359  39.035341  23.494363  0.631563  -4.109143  -93.203849  80.863323  -0.805422  11.194479  13.755192  -0.487204  13.64284  10.333345  -0.058232  10.249221  
0.0  89.887642  0.0  17.552303  -58.350293  -121.289359  37.064745  -41.069575  -20.65782  20.767259  26.886945  67.796659  -2.309277  0.802226  -0.428176  -14.375642  18.05878  -31.716047  16.070344  12.885443  64.221213  16.176114  9.222708  -4.47348  0.228443  1.741136  1.474057  0.731567  4.743186  4.052035  0.731567  4.743187  4.052035  -2.094432  25.125729  16.946043  -89.329961  42.299605  -78.444042  -36.095518  12.171852  79.978617  64.827656  -2.165603  17.264523  9.273399  6.563145  17.287108  96.905796  39.028533  23.458502  0.748644  -4.227877  -92.971998  80.495603  -0.451667  11.444277  13.557202  -0.407457  13.741288  10.183155  -5.92E-4  10.321014  
0.0  89.887642  0.0  18.097485  -58.432231  -121.575453  38.488811  -40.706226  -21.150693  20.047993  26.750837  67.411825  -2.641388  0.758956  -0.47688  -15.624364  17.970415  -32.066837  16.90635  12.560594  63.684516  16.340075  9.245572  -4.433914  0.25789  1.757009  1.43756  0.810503  4.785233  3.954513  0.810503  4.785233  3.954513  -1.932101  25.159087  16.982694  -89.664045  42.622548  -78.316079  -36.349394  11.797084  79.538541  64.880384  -2.043353  17.185498  8.804675  6.412257  17.461032  97.43101  39.032825  23.867394  0.921751  -4.306824  -92.680553  80.346771  -0.138041  11.719526  13.494858  -0.346801  13.745411  10.135024  0.04364  10.322684  
